<svg width="64" height="64" viewBox="0 0 64 64" fill="none" xmlns="http://www.w3.org/2000/svg" role="img" aria-labelledby="title desc">
  <title id="title">Speed Informática SM</title>
  <desc id="desc">Ícone da Speed Informática SM.</desc>
  <defs>
    <linearGradient id="g" x1="8" y1="6" x2="56" y2="58" gradientUnits="userSpaceOnUse">
      <stop stop-color="#4BD4FF"/>
      <stop offset="1" stop-color="#7CFFB8"/>
    </linearGradient>
  </defs>
  <rect x="4" y="4" width="56" height="56" rx="18" fill="url(#g)"/>
  <path d="M41.6 19.1C38.4 17.2 33.5 16.6 29.1 17.6c-5.7 1.4-9.4 5-9.4 9.7 0 6.7 5.9 9 11 10.5 4.3 1.3 8.2 2.5 8.2 6 0 3.1-3 5.1-6.9 5.1-3.8 0-7.5-1.2-10.1-3.4l-2.8 5.5c3 2.6 7.8 4.1 12.5 4.1 8.5 0 14.7-4.7 14.7-11.8 0-7-6-9.3-11.3-10.9-4.5-1.3-8.5-2.6-8.5-5.8 0-2.7 2.5-4.5 6.6-4.5 3 0 6.2.9 8.8 2.4l3.1-5.8Z" fill="#04111A"/>
</svg>
