<svg width="96" height="96" viewBox="0 0 96 96" fill="none" xmlns="http://www.w3.org/2000/svg" role="img" aria-labelledby="title desc">
  <title id="title">Speed Informática SM</title>
  <desc id="desc">Logo com a letra S para a Speed Informática SM.</desc>
  <defs>
    <linearGradient id="g" x1="16" y1="12" x2="84" y2="84" gradientUnits="userSpaceOnUse">
      <stop stop-color="#4BD4FF"/>
      <stop offset="1" stop-color="#7CFFB8"/>
    </linearGradient>
  </defs>
  <rect x="6" y="6" width="84" height="84" rx="26" fill="url(#g)"/>
  <path d="M58.1 25.8C53.4 23 46.5 22 40.2 23.5c-8.3 2-13.7 7.4-13.7 14.6 0 10.1 8.7 13.5 16.1 15.8 6.6 2 12.4 3.7 12.4 9 0 4.7-4.5 7.7-10.4 7.7-5.7 0-11.2-1.9-15.4-5.2l-4.3 8.3c4.6 3.9 11.8 6.3 19.1 6.3 12.8 0 22.1-7.1 22.1-17.8 0-10.6-9-14-17-16.4-6.8-2-12.8-3.8-12.8-8.8 0-4 3.8-6.8 10-6.8 4.5 0 9.3 1.3 13.2 3.6l4.8-8.8Z" fill="#04111A"/>
</svg>
